<svg xmlns="http://www.w3.org/2000/svg" xmlns:xlink="http://www.w3.org/1999/xlink" width="500" zoomAndPan="magnify" viewBox="0 0 375 374.999991" height="500" preserveAspectRatio="xMidYMid meet" version="1.0"><defs><g/><clipPath id="8239317edb"><path d="M 122.746094 92.371094 L 252.496094 92.371094 L 252.496094 211.621094 L 122.746094 211.621094 Z M 122.746094 92.371094 " clip-rule="nonzero"/></clipPath></defs><g clip-path="url(#8239317edb)"><path fill="#332c54" d="M 217.683594 205.148438 C 194.652344 217.738281 172.914062 211.929688 172.914062 186.75 L 172.914062 120.472656 C 172.914062 104.980469 165.78125 97.878906 156.050781 98.851562 C 179.082031 86.246094 200.816406 92.070312 200.816406 117.246094 L 200.816406 183.523438 C 200.816406 199.015625 207.949219 206.117188 217.683594 205.148438 Z M 150.644531 172.761719 L 150.644531 120.6875 C 150.644531 119.777344 150.554688 118.875 150.375 117.980469 C 150.195312 117.085938 149.933594 116.21875 149.582031 115.375 C 149.230469 114.535156 148.800781 113.734375 148.292969 112.976562 C 147.785156 112.21875 147.207031 111.519531 146.558594 110.875 C 145.910156 110.230469 145.207031 109.65625 144.445312 109.148438 C 143.683594 108.640625 142.878906 108.214844 142.035156 107.867188 C 141.1875 107.515625 140.316406 107.253906 139.417969 107.078125 C 138.519531 106.898438 137.613281 106.808594 136.695312 106.808594 C 135.78125 106.808594 134.875 106.898438 133.976562 107.074219 C 133.078125 107.253906 132.207031 107.515625 131.359375 107.867188 C 130.511719 108.214844 129.710938 108.640625 128.949219 109.148438 C 128.1875 109.652344 127.480469 110.230469 126.832031 110.875 C 126.1875 111.519531 125.609375 112.21875 125.097656 112.976562 C 124.589844 113.734375 124.160156 114.535156 123.808594 115.375 C 123.460938 116.21875 123.195312 117.085938 123.015625 117.980469 C 122.835938 118.875 122.746094 119.777344 122.746094 120.6875 L 122.746094 175.988281 C 122.746094 201.167969 144.480469 206.976562 167.511719 194.390625 C 157.78125 195.359375 150.644531 188.257812 150.644531 172.761719 Z M 207.734375 111.417969 C 217.46875 110.449219 224.601562 117.550781 224.601562 133.042969 L 224.601562 185.117188 C 224.601562 186.03125 224.691406 186.933594 224.871094 187.828125 C 225.046875 188.71875 225.3125 189.589844 225.664062 190.429688 C 226.015625 191.273438 226.445312 192.070312 226.953125 192.828125 C 227.460938 193.585938 228.039062 194.289062 228.6875 194.933594 C 229.335938 195.578125 230.039062 196.152344 230.800781 196.660156 C 231.5625 197.164062 232.367188 197.59375 233.210938 197.941406 C 234.058594 198.292969 234.929688 198.554688 235.828125 198.730469 C 236.726562 198.910156 237.636719 199 238.550781 199 C 239.46875 199 240.375 198.910156 241.273438 198.730469 C 242.171875 198.554688 243.042969 198.289062 243.890625 197.941406 C 244.734375 197.59375 245.539062 197.164062 246.300781 196.660156 C 247.0625 196.152344 247.765625 195.578125 248.414062 194.933594 C 249.0625 194.289062 249.640625 193.585938 250.148438 192.828125 C 250.65625 192.070312 251.085938 191.273438 251.4375 190.429688 C 251.789062 189.589844 252.050781 188.71875 252.230469 187.824219 C 252.410156 186.933594 252.496094 186.03125 252.496094 185.117188 L 252.496094 129.816406 C 252.496094 104.640625 230.777344 98.832031 207.734375 111.417969 Z M 207.734375 111.417969 " fill-opacity="1" fill-rule="nonzero"/></g><g fill="#332c54" fill-opacity="1"><g transform="translate(81.917966, 252.732478)"><g><path d="M 2.171875 0 L 2.90625 -24.84375 L 8.609375 -24.84375 L 16.9375 -8.640625 L 25.125 -24.84375 L 30.828125 -24.84375 L 31.359375 0 L 24.609375 0 L 24.390625 -10.390625 L 19.078125 0 L 14.171875 0 L 8.890625 -10.21875 L 8.578125 0 Z M 2.171875 0 "/></g></g></g><g fill="#332c54" fill-opacity="1"><g transform="translate(124.225386, 252.732478)"><g><path d="M 20.234375 -18.859375 L 9 -18.859375 L 9 -15.46875 L 19.3125 -15.46875 L 19.3125 -9.484375 L 9 -9.484375 L 9 -5.984375 L 20.515625 -5.984375 L 20.09375 0 L 2.09375 0 L 2.09375 -24.84375 L 20.234375 -24.84375 Z M 20.234375 -18.859375 "/></g></g></g><g fill="#332c54" fill-opacity="1"><g transform="translate(153.795682, 252.732478)"><g><path d="M 2.09375 0 L 2.09375 -24.84375 L 9.09375 -24.84375 L 9.09375 0 Z M 2.09375 0 "/></g></g></g><g fill="#332c54" fill-opacity="1"><g transform="translate(173.743156, 252.732478)"><g><path d="M 2.09375 0 L 2.09375 -24.84375 L 9.09375 -24.84375 L 9.09375 -6.09375 L 19.453125 -6.09375 L 19.046875 0 Z M 2.09375 0 "/></g></g></g><g fill="#332c54" fill-opacity="1"><g transform="translate(201.808794, 252.732478)"><g><path d="M 23.0625 -24.84375 L 14.734375 -11.09375 L 14.734375 0 L 7.734375 0 L 7.734375 -10.75 L -1.015625 -24.84375 L 6.796875 -24.84375 L 11.484375 -17.109375 L 15.78125 -24.84375 Z M 23.0625 -24.84375 "/></g></g></g><g fill="#332c54" fill-opacity="1"><g transform="translate(232.813766, 252.732478)"><g><path d="M -1.359375 0 L 9.59375 -24.84375 L 15.40625 -24.84375 L 25.96875 0 L 18.90625 0 L 17.15625 -4.4375 L 7.53125 -4.4375 L 5.703125 0 Z M 9.90625 -10.21875 L 14.84375 -10.21875 L 12.421875 -16.3125 Z M 9.90625 -10.21875 "/></g></g></g><g fill="#332c54" fill-opacity="1"><g transform="translate(266.303182, 252.732478)"><g><path d="M 17.953125 -24.84375 L 24.671875 -24.84375 L 24.671875 0 L 18.4375 0 L 8.8125 -13.375 L 8.8125 0 L 2.09375 0 L 2.09375 -24.84375 L 8.328125 -24.84375 L 17.953125 -11.515625 Z M 17.953125 -24.84375 "/></g></g></g></svg>