<svg xmlns="http://www.w3.org/2000/svg" xmlns:xlink="http://www.w3.org/1999/xlink" width="500" zoomAndPan="magnify" viewBox="0 0 375 374.999991" height="500" preserveAspectRatio="xMidYMid meet" version="1.0"><defs><g/></defs><g fill="#ffffff" fill-opacity="1"><g transform="translate(103.645251, 210.111461)"><g><path d="M 107.203125 -81.109375 L 78.125 -81.109375 L 53.9375 -22.984375 L 25.546875 -81.109375 L 1.359375 -81.109375 L 1.359375 -77.453125 L 12.171875 -77.453125 L 12.171875 -3.65625 L 1.359375 -3.65625 L 1.359375 0 L 28.65625 0 C 28.113281 -2.25 26.898438 -3.46875 25.015625 -3.65625 L 17.84375 -3.65625 L 17.84375 -54.609375 L 46.640625 1.359375 L 49.0625 1.359375 L 78.125 -67.859375 L 78.125 -3.65625 L 67.3125 -3.65625 L 67.3125 0 L 107.203125 0 C 106.660156 -2.25 105.441406 -3.46875 103.546875 -3.65625 L 96.375 -3.65625 L 96.375 -77.453125 L 107.203125 -77.453125 Z M 107.203125 -81.109375 "/></g></g></g><g fill="#ffffff" fill-opacity="1"><g transform="translate(158.905394, 271.717921)"><g><path d="M 69.890625 -22.578125 C 69.890625 -30.054688 65.785156 -36.453125 57.578125 -41.765625 C 56.410156 -42.398438 51.679688 -44.925781 43.390625 -49.34375 C 35.816406 -53.300781 31.085938 -57.21875 29.203125 -61.09375 C 28.296875 -62.988281 27.84375 -64.972656 27.84375 -67.046875 C 27.84375 -72.367188 30.410156 -75.882812 35.546875 -77.59375 C 37.265625 -78.132812 39.066406 -78.40625 40.953125 -78.40625 C 48.347656 -78.40625 53.890625 -75.609375 57.578125 -70.015625 C 59.835938 -66.503906 61.007812 -62.316406 61.09375 -57.453125 L 66.375 -57.453125 L 66.375 -81.921875 C 63.851562 -81.921875 62.363281 -81.0625 61.90625 -79.34375 C 61.820312 -78.71875 61.78125 -78 61.78125 -77.1875 C 54.300781 -80.695312 46.414062 -82.453125 38.125 -82.453125 C 27.21875 -82.453125 19.015625 -79.613281 13.515625 -73.9375 C 10.003906 -70.25 8.25 -65.878906 8.25 -60.828125 C 8.25 -53.347656 12.53125 -46.953125 21.09375 -41.640625 C 22.164062 -40.910156 27.03125 -38.335938 35.6875 -33.921875 C 43.4375 -29.867188 48.257812 -25.953125 50.15625 -22.171875 C 50.96875 -20.367188 51.375 -18.519531 51.375 -16.625 C 51.375 -10.132812 48.488281 -5.8125 42.71875 -3.65625 C 40.644531 -2.925781 38.347656 -2.5625 35.828125 -2.5625 C 26.273438 -2.5625 19.5625 -6.9375 15.6875 -15.6875 C 14.0625 -19.375 13.066406 -23.609375 12.703125 -28.390625 L 7.4375 -28.390625 L 7.4375 0.265625 C 9.863281 0.265625 11.304688 -0.453125 11.765625 -1.890625 C 11.941406 -2.796875 12.03125 -4.015625 12.03125 -5.546875 C 18.96875 -0.941406 27.347656 1.359375 37.171875 1.359375 C 48.617188 1.359375 57.40625 -1.570312 63.53125 -7.4375 C 67.769531 -11.582031 69.890625 -16.628906 69.890625 -22.578125 Z M 69.890625 -22.578125 "/></g></g></g></svg>